<svg width="187" height="56" viewBox="0 0 187 56" fill="none" xmlns="http://www.w3.org/2000/svg">
<path d="M12.16 11.896C13.568 11.896 14.72 12.1093 15.616 12.536C16.5333 12.9413 17.344 13.4213 18.048 13.976C18.4747 14.296 18.7947 14.3387 19.008 14.104C19.2427 13.848 19.4027 13.2613 19.488 12.344H20.224C20.1813 13.1547 20.1493 14.136 20.128 15.288C20.1067 16.4187 20.096 17.9333 20.096 19.832H19.36C19.2107 18.8933 19.0613 18.1253 18.912 17.528C18.784 16.9307 18.6027 16.4187 18.368 15.992C18.1547 15.5653 17.856 15.1493 17.472 14.744C16.8533 13.976 16.096 13.4213 15.2 13.08C14.304 12.7387 13.3547 12.568 12.352 12.568C11.264 12.568 10.304 12.8453 9.472 13.4C8.64 13.9333 7.936 14.7013 7.36 15.704C6.80533 16.7067 6.37867 17.8907 6.08 19.256C5.78133 20.6213 5.632 22.1147 5.632 23.736C5.632 25.4 5.792 26.9147 6.112 28.28C6.432 29.624 6.89067 30.7867 7.488 31.768C8.10667 32.728 8.84267 33.4747 9.696 34.008C10.5707 34.52 11.5413 34.776 12.608 34.776C13.4827 34.776 14.3893 34.6053 15.328 34.264C16.2667 33.9013 17.0133 33.3573 17.568 32.632C18.1653 31.992 18.5707 31.2773 18.784 30.488C19.0187 29.6773 19.2107 28.5787 19.36 27.192H20.096C20.096 29.1547 20.1067 30.744 20.128 31.96C20.1493 33.1547 20.1813 34.168 20.224 35H19.488C19.4027 34.0827 19.2533 33.5067 19.04 33.272C18.848 33.0373 18.5173 33.0693 18.048 33.368C17.2587 33.9227 16.416 34.4133 15.52 34.84C14.6453 35.2453 13.5147 35.448 12.128 35.448C10.016 35.448 8.17067 34.9893 6.592 34.072C5.01333 33.1547 3.78667 31.832 2.912 30.104C2.03733 28.376 1.6 26.296 1.6 23.864C1.6 21.4747 2.048 19.384 2.944 17.592C3.86133 15.8 5.10933 14.4027 6.688 13.4C8.26667 12.3973 10.0907 11.896 12.16 11.896ZM31.0188 18.04C32.8961 18.04 34.3681 18.6053 35.4348 19.736C36.5014 20.8667 37.0348 22.6587 37.0348 25.112H25.9948L25.9308 24.504H33.6428C33.6641 23.4587 33.5788 22.4987 33.3868 21.624C33.1948 20.728 32.8961 20.0133 32.4908 19.48C32.0854 18.9467 31.5521 18.68 30.8908 18.68C29.9734 18.68 29.1734 19.1707 28.4908 20.152C27.8294 21.112 27.4241 22.6587 27.2748 24.792L27.3708 24.952C27.3494 25.2507 27.3281 25.5813 27.3068 25.944C27.2854 26.2853 27.2748 26.6267 27.2748 26.968C27.2748 28.44 27.4988 29.6773 27.9468 30.68C28.3948 31.6827 28.9814 32.44 29.7068 32.952C30.4321 33.4427 31.1681 33.688 31.9148 33.688C32.7681 33.688 33.5894 33.4747 34.3788 33.048C35.1894 32.6213 35.8828 31.832 36.4588 30.68L37.0988 30.936C36.8428 31.6613 36.4481 32.376 35.9148 33.08C35.3814 33.784 34.6988 34.36 33.8668 34.808C33.0348 35.2347 32.0641 35.448 30.9548 35.448C29.4614 35.448 28.1601 35.1173 27.0508 34.456C25.9414 33.7733 25.0881 32.8027 24.4908 31.544C23.8934 30.2853 23.5948 28.792 23.5948 27.064C23.5948 25.1653 23.9041 23.544 24.5228 22.2C25.1414 20.856 26.0054 19.832 27.1148 19.128C28.2454 18.4027 29.5468 18.04 31.0188 18.04ZM50.3125 18.04C51.1658 18.04 51.8592 18.1573 52.3925 18.392C52.9472 18.6053 53.4058 18.904 53.7685 19.288C54.1525 19.6933 54.4192 20.216 54.5685 20.856C54.7392 21.496 54.8245 22.36 54.8245 23.448V32.024C54.8245 32.92 54.9952 33.528 55.3365 33.848C55.6992 34.168 56.2965 34.328 57.1285 34.328V35C56.7658 34.9787 56.2005 34.9573 55.4325 34.936C54.6645 34.8933 53.9072 34.872 53.1605 34.872C52.4352 34.872 51.7098 34.8933 50.9845 34.936C50.2805 34.9573 49.7472 34.9787 49.3845 35V34.328C50.1098 34.328 50.6218 34.168 50.9205 33.848C51.2192 33.528 51.3685 32.92 51.3685 32.024V22.552C51.3685 21.9333 51.3152 21.3787 51.2085 20.888C51.1018 20.376 50.8778 19.9707 50.5365 19.672C50.1952 19.352 49.6832 19.192 49.0005 19.192C47.8058 19.192 46.8245 19.6827 46.0565 20.664C45.3098 21.6453 44.9365 22.8613 44.9365 24.312V32.024C44.9365 32.92 45.0858 33.528 45.3845 33.848C45.7045 34.168 46.2165 34.328 46.9205 34.328V35C46.5792 34.9787 46.0565 34.9573 45.3525 34.936C44.6698 34.8933 43.9552 34.872 43.2085 34.872C42.4832 34.872 41.7258 34.8933 40.9365 34.936C40.1472 34.9573 39.5605 34.9787 39.1765 35V34.328C40.0085 34.328 40.5952 34.168 40.9365 33.848C41.2992 33.528 41.4805 32.92 41.4805 32.024V21.976C41.4805 21.016 41.3205 20.312 41.0005 19.864C40.6805 19.3947 40.0725 19.16 39.1765 19.16V18.488C39.8592 18.552 40.5205 18.584 41.1605 18.584C41.8858 18.584 42.5578 18.552 43.1765 18.488C43.8165 18.4027 44.4032 18.2853 44.9365 18.136V21.624C45.4912 20.3013 46.2485 19.3733 47.2085 18.84C48.1898 18.3067 49.2245 18.04 50.3125 18.04ZM64.0578 13.208V18.52H68.4738V19.16H64.0578V31.736C64.0578 32.6107 64.2178 33.2293 64.5378 33.592C64.8578 33.9547 65.3164 34.136 65.9138 34.136C66.4684 34.136 66.9591 33.912 67.3858 33.464C67.8338 33.016 68.2178 32.2587 68.5378 31.192L69.1458 31.416C68.8898 32.5467 68.4311 33.5067 67.7698 34.296C67.1298 35.064 66.1804 35.448 64.9218 35.448C64.1964 35.448 63.5884 35.352 63.0978 35.16C62.6071 34.9893 62.1804 34.7333 61.8177 34.392C61.3484 33.9013 61.0284 33.3147 60.8578 32.632C60.6871 31.9493 60.6018 31.0427 60.6018 29.912V19.16H57.6578V18.52H60.6018V13.848C61.2631 13.8267 61.8818 13.7733 62.4578 13.688C63.0338 13.5813 63.5671 13.4213 64.0578 13.208ZM80.043 18.04C80.6617 18.04 81.1843 18.168 81.611 18.424C82.059 18.68 82.3897 19.0107 82.603 19.416C82.8377 19.8 82.955 20.2373 82.955 20.728C82.955 21.3467 82.763 21.88 82.379 22.328C82.0163 22.7547 81.5257 22.968 80.907 22.968C80.3737 22.968 79.915 22.808 79.531 22.488C79.1683 22.168 78.987 21.7307 78.987 21.176C78.987 20.7067 79.1043 20.312 79.339 19.992C79.595 19.6507 79.883 19.384 80.203 19.192C79.9897 19.0213 79.7337 18.9467 79.435 18.968C78.667 19.0107 77.9843 19.3307 77.387 19.928C76.811 20.504 76.3523 21.208 76.011 22.04C75.6697 22.872 75.499 23.64 75.499 24.344V31.704C75.499 32.7493 75.787 33.4533 76.363 33.816C76.939 34.1573 77.739 34.328 78.763 34.328V35C78.2723 34.9787 77.5683 34.9573 76.651 34.936C75.755 34.8933 74.8057 34.872 73.803 34.872C73.035 34.872 72.267 34.8933 71.499 34.936C70.731 34.9573 70.1443 34.9787 69.739 35V34.328C70.571 34.328 71.1577 34.168 71.499 33.848C71.8617 33.528 72.043 32.92 72.043 32.024V21.976C72.043 21.016 71.883 20.312 71.563 19.864C71.243 19.3947 70.635 19.16 69.739 19.16V18.488C70.4217 18.552 71.083 18.584 71.723 18.584C72.4483 18.584 73.1203 18.552 73.739 18.488C74.379 18.4027 74.9657 18.2853 75.499 18.136V21.816C75.755 21.1973 76.0963 20.6 76.523 20.024C76.9497 19.448 77.4617 18.9787 78.059 18.616C78.6563 18.232 79.3177 18.04 80.043 18.04ZM91.6453 18.04C93.0746 18.04 94.3439 18.3387 95.4533 18.936C96.5626 19.5333 97.4479 20.472 98.1093 21.752C98.7706 23.032 99.1013 24.7067 99.1013 26.776C99.1013 28.8453 98.7706 30.52 98.1093 31.8C97.4479 33.0587 96.5626 33.9867 95.4533 34.584C94.3439 35.16 93.0746 35.448 91.6453 35.448C90.2373 35.448 88.9679 35.16 87.8373 34.584C86.7066 33.9867 85.8106 33.0587 85.1493 31.8C84.5093 30.52 84.1893 28.8453 84.1893 26.776C84.1893 24.7067 84.5093 23.032 85.1493 21.752C85.8106 20.472 86.7066 19.5333 87.8373 18.936C88.9679 18.3387 90.2373 18.04 91.6453 18.04ZM91.6453 18.68C90.5359 18.68 89.6293 19.32 88.9253 20.6C88.2213 21.8587 87.8693 23.9173 87.8693 26.776C87.8693 29.6347 88.2213 31.6933 88.9253 32.952C89.6293 34.1893 90.5359 34.808 91.6453 34.808C92.7333 34.808 93.6293 34.1893 94.3333 32.952C95.0586 31.6933 95.4213 29.6347 95.4213 26.776C95.4213 23.9173 95.0586 21.8587 94.3333 20.6C93.6293 19.32 92.7333 18.68 91.6453 18.68ZM135.545 12.344V12.984C134.819 13.0053 134.275 13.0907 133.913 13.24C133.55 13.368 133.305 13.624 133.177 14.008C133.07 14.3707 133.017 14.9467 133.017 15.736V31.608C133.017 32.376 133.07 32.952 133.177 33.336C133.305 33.72 133.55 33.976 133.913 34.104C134.275 34.232 134.819 34.3173 135.545 34.36V35C135.011 34.9573 134.35 34.936 133.561 34.936C132.771 34.9147 131.971 34.904 131.161 34.904C130.265 34.904 129.422 34.9147 128.633 34.936C127.843 34.936 127.214 34.9573 126.745 35V34.36C127.47 34.3173 128.014 34.232 128.377 34.104C128.761 33.976 129.017 33.72 129.145 33.336C129.273 32.952 129.337 32.376 129.337 31.608V14.104L129.497 14.168L121.625 35.128H121.113L112.857 14.392V30.776C112.857 31.672 112.921 32.376 113.049 32.888C113.177 33.3787 113.454 33.7307 113.881 33.944C114.307 34.1573 114.958 34.296 115.833 34.36V35C115.427 34.9573 114.905 34.936 114.265 34.936C113.646 34.9147 113.059 34.904 112.505 34.904C111.971 34.904 111.438 34.9147 110.905 34.936C110.371 34.936 109.934 34.9573 109.593 35V34.36C110.297 34.296 110.83 34.168 111.193 33.976C111.555 33.7627 111.801 33.4107 111.929 32.92C112.057 32.4293 112.121 31.7573 112.121 30.904V15.736C112.121 14.9467 112.057 14.3707 111.929 14.008C111.801 13.624 111.555 13.368 111.193 13.24C110.83 13.0907 110.297 13.0053 109.593 12.984V12.344C109.934 12.3653 110.371 12.3867 110.905 12.408C111.438 12.4293 111.971 12.44 112.505 12.44C113.123 12.44 113.742 12.4293 114.361 12.408C115.001 12.3867 115.545 12.3653 115.993 12.344L123.065 30.52L122.457 30.936L129.401 12.44C129.678 12.44 129.966 12.44 130.265 12.44C130.563 12.44 130.862 12.44 131.161 12.44C131.971 12.44 132.771 12.4293 133.561 12.408C134.35 12.3867 135.011 12.3653 135.545 12.344ZM141.485 10.424C142.147 10.424 142.701 10.6373 143.149 11.064C143.597 11.4693 143.821 11.9813 143.821 12.6C143.821 13.2187 143.597 13.7413 143.149 14.168C142.701 14.5733 142.147 14.776 141.485 14.776C140.824 14.776 140.269 14.5733 139.821 14.168C139.373 13.7413 139.149 13.2187 139.149 12.6C139.149 11.9813 139.373 11.4693 139.821 11.064C140.269 10.6373 140.824 10.424 141.485 10.424ZM143.405 18.136V32.024C143.405 32.92 143.576 33.528 143.917 33.848C144.28 34.168 144.877 34.328 145.709 34.328V35C145.347 34.9787 144.781 34.9573 144.013 34.936C143.267 34.8933 142.499 34.872 141.709 34.872C140.963 34.872 140.195 34.8933 139.405 34.936C138.616 34.9573 138.029 34.9787 137.645 35V34.328C138.477 34.328 139.064 34.168 139.405 33.848C139.768 33.528 139.949 32.92 139.949 32.024V21.976C139.949 21.016 139.789 20.312 139.469 19.864C139.149 19.3947 138.541 19.16 137.645 19.16V18.488C138.328 18.552 138.989 18.584 139.629 18.584C140.355 18.584 141.027 18.552 141.645 18.488C142.285 18.4027 142.872 18.2853 143.405 18.136ZM156.423 12.344V12.984C155.698 13.0053 155.143 13.0907 154.759 13.24C154.396 13.368 154.151 13.624 154.023 14.008C153.895 14.3707 153.831 14.9467 153.831 15.736V31.736C153.831 32.4613 153.884 33.0053 153.991 33.368C154.119 33.7307 154.354 33.976 154.695 34.104C155.058 34.2107 155.57 34.264 156.231 34.264H158.311C159.548 34.264 160.53 34.04 161.255 33.592C161.98 33.1227 162.535 32.4187 162.919 31.48C163.303 30.5413 163.58 29.3467 163.751 27.896H164.487C164.423 28.5787 164.391 29.4747 164.391 30.584C164.391 31.0107 164.402 31.64 164.423 32.472C164.466 33.2827 164.53 34.1253 164.615 35C163.527 34.9573 162.3 34.936 160.935 34.936C159.57 34.9147 158.354 34.904 157.287 34.904C156.626 34.904 155.74 34.904 154.631 34.904C153.543 34.904 152.37 34.9147 151.111 34.936C149.874 34.936 148.711 34.9573 147.623 35V34.36C148.348 34.3173 148.892 34.232 149.255 34.104C149.618 33.976 149.852 33.72 149.959 33.336C150.087 32.952 150.151 32.376 150.151 31.608V15.736C150.151 14.9467 150.087 14.3707 149.959 14.008C149.852 13.624 149.607 13.368 149.223 13.24C148.86 13.0907 148.327 13.0053 147.623 12.984V12.344C148.114 12.3653 148.743 12.3867 149.511 12.408C150.3 12.4293 151.143 12.44 152.039 12.44C152.85 12.44 153.65 12.4293 154.439 12.408C155.25 12.3867 155.911 12.3653 156.423 12.344ZM176.254 12.216L184.062 32.312C184.36 33.1013 184.702 33.6347 185.086 33.912C185.491 34.1893 185.864 34.3387 186.206 34.36V35C185.694 34.9573 185.086 34.936 184.382 34.936C183.699 34.9147 183.006 34.904 182.302 34.904C181.406 34.904 180.574 34.9147 179.806 34.936C179.038 34.936 178.419 34.9573 177.95 35V34.36C179.038 34.3173 179.72 34.136 179.998 33.816C180.296 33.4747 180.232 32.76 179.806 31.672L174.046 16.12L174.558 15.544L169.246 29.432C168.734 30.712 168.488 31.704 168.51 32.408C168.531 33.112 168.776 33.6133 169.246 33.912C169.736 34.1893 170.43 34.3387 171.326 34.36V35C170.686 34.9573 170.035 34.936 169.374 34.936C168.734 34.9147 168.126 34.904 167.549 34.904C167.038 34.904 166.579 34.9147 166.174 34.936C165.79 34.936 165.438 34.9573 165.117 35V34.36C165.566 34.2533 166.014 33.9867 166.462 33.56C166.91 33.1333 167.336 32.408 167.742 31.384L175.166 12.216C175.336 12.216 175.518 12.216 175.71 12.216C175.902 12.216 176.083 12.216 176.254 12.216ZM179.614 25.784V26.424H170.078L170.398 25.784H179.614Z" fill="#1A141F"/>
<path d="M140.801 50.7895C138.909 52.5658 137.648 53.6316 135.125 53.6316C132.602 53.6316 131.341 52.5658 129.449 50.7895C127.557 49.0132 125.507 47 121.25 47C116.993 47 114.943 49.0132 113.051 50.7895C111.159 52.5658 109.898 53.6316 107.375 53.6316C104.852 53.6316 103.591 52.5658 101.699 50.7895C99.8068 49.0132 97.7571 47 93.5 47C89.2429 47 87.1932 49.0132 85.3011 50.7895C83.4091 52.5658 82.1477 53.6316 79.625 53.6316C77.1023 53.6316 75.8409 52.5658 73.9489 50.7895C72.0568 49.0132 70.0071 47 65.75 47C61.4929 47 59.4432 49.0132 57.5511 50.7895C55.6591 52.5658 54.3977 53.6316 51.875 53.6316C49.3523 53.6316 48.0909 52.5658 46.1989 50.7895C44.3068 49.0132 42.2571 47 38 47V49.3684C40.5227 49.3684 41.7841 50.4342 43.6761 52.2105C45.5682 53.9868 47.6179 56 51.875 56C56.1321 56 58.1818 53.9868 60.0739 52.2105C61.9659 50.4342 63.2273 49.3684 65.75 49.3684C68.2727 49.3684 69.5341 50.4342 71.4261 52.2105C73.3182 53.9868 75.3679 56 79.625 56C83.8821 56 85.9318 53.9868 87.8239 52.2105C89.7159 50.4342 90.9773 49.3684 93.5 49.3684C96.0227 49.3684 97.2841 50.4342 99.1761 52.2105C101.068 53.9868 103.118 56 107.375 56C111.632 56 113.682 53.9868 115.574 52.2105C117.466 50.4342 118.727 49.3684 121.25 49.3684C123.773 49.3684 125.034 50.4342 126.926 52.2105C128.818 53.9868 130.868 56 135.125 56C139.382 56 141.432 53.9868 143.324 52.2105C145.216 50.4342 146.477 49.3684 149 49.3684V47C144.743 47 142.693 49.0132 140.801 50.7895Z" fill="#6706A5"/>
</svg>
