<?xml version="1.0" encoding="UTF-8"?><svg id="Livello_2" xmlns="http://www.w3.org/2000/svg" viewBox="0 0 1000 114.41"><defs><style>.cls-1{fill:#1a1a1a;stroke-width:0px;}</style></defs><g id="Layer_1"><path class="cls-1" d="M984.4,0c-46.97,0-70.86,24.62-91.93,46.34-19.2,19.78-35.77,36.87-69.54,36.87s-50.35-17.08-69.54-36.87c-21.08-21.72-44.96-46.34-91.93-46.34s-70.85,24.62-91.93,46.34c-19.19,19.78-35.77,36.87-69.54,36.87s-50.34-17.08-69.53-36.87C409.38,24.62,385.49,0,338.53,0s-70.85,24.62-91.93,46.34c-19.19,19.78-35.77,36.87-69.54,36.87s-50.34-17.08-69.53-36.87C86.45,24.62,62.57,0,15.6,0,6.98,0,0,6.98,0,15.6s6.98,15.6,15.6,15.6c33.76,0,50.34,17.08,69.53,36.87,21.07,21.72,44.96,46.34,91.93,46.34s70.85-24.62,91.93-46.34c19.19-19.78,35.77-36.87,69.53-36.87s50.34,17.08,69.53,36.87c21.07,21.72,44.96,46.34,91.93,46.34s70.85-24.62,91.93-46.34c19.19-19.78,35.77-36.87,69.54-36.87s50.34,17.08,69.54,36.87c21.08,21.72,44.97,46.34,91.93,46.34s70.86-24.62,91.93-46.34c19.2-19.78,35.77-36.87,69.54-36.87,8.62,0,15.6-6.98,15.6-15.6s-6.98-15.6-15.6-15.6Z"/></g></svg>